<svg width="1815" height="1298" viewBox="0 0 1815 1298" fill="none" xmlns="http://www.w3.org/2000/svg">
<rect x="394" y="10" width="1060" height="1060" stroke="white" stroke-width="20"/>
<line x1="934" x2="934" y2="1066" stroke="white" stroke-width="20"/>
<line x1="384" y1="530" x2="1450" y2="530" stroke="white" stroke-width="20"/>
<path d="M578.146 1219.04C578.967 1214.1 582.133 1208.38 587.644 1201.9C593.155 1195.42 599.956 1192.13 608.046 1192.01C612.15 1192.01 615.903 1193.07 619.303 1195.19C622.703 1197.31 625.224 1199.96 626.866 1203.14C631.791 1195.72 637.712 1192.01 644.63 1192.01C648.969 1192.01 652.721 1193.3 655.887 1195.9C659.053 1198.49 660.694 1201.96 660.812 1206.32C660.812 1209.74 659.991 1212.51 658.349 1214.63C656.708 1216.75 655.125 1218.04 653.6 1218.51C652.076 1218.98 650.728 1219.22 649.555 1219.22C647.327 1219.22 645.51 1218.57 644.103 1217.28C642.696 1215.98 641.992 1214.27 641.992 1212.15C641.992 1206.73 644.923 1203.02 650.786 1201.02C649.496 1199.49 647.151 1198.72 643.751 1198.72C642.227 1198.72 641.113 1198.84 640.409 1199.08C635.953 1200.96 632.67 1204.85 630.56 1210.74C623.524 1236.77 620.007 1251.97 620.007 1256.33C620.007 1259.62 620.945 1261.98 622.821 1263.39C624.697 1264.81 626.749 1265.51 628.977 1265.51C633.315 1265.51 637.595 1263.57 641.816 1259.68C646.037 1255.8 648.91 1251.03 650.434 1245.37C650.786 1244.19 651.138 1243.55 651.49 1243.43C651.842 1243.31 652.78 1243.19 654.304 1243.07H655.007C656.766 1243.07 657.646 1243.55 657.646 1244.49C657.646 1244.61 657.528 1245.25 657.294 1246.43C655.418 1253.15 651.783 1259.09 646.389 1264.28C640.995 1269.46 634.722 1272.05 627.57 1272.05C619.362 1272.05 613.147 1268.34 608.926 1260.92C604.118 1268.22 598.607 1271.88 592.393 1271.88H591.337C585.592 1271.88 581.488 1270.34 579.025 1267.28C576.563 1264.22 575.273 1260.98 575.156 1257.56C575.156 1253.79 576.27 1250.73 578.498 1248.38C580.726 1246.02 583.364 1244.84 586.413 1244.84C591.455 1244.84 593.976 1247.32 593.976 1252.26C593.976 1254.62 593.272 1256.68 591.865 1258.45C590.458 1260.21 589.109 1261.39 587.82 1261.98C586.53 1262.57 585.768 1262.86 585.533 1262.86L585.006 1263.04C585.006 1263.16 585.357 1263.39 586.061 1263.75C586.764 1264.1 587.702 1264.51 588.875 1264.98C590.048 1265.46 591.161 1265.63 592.217 1265.51C596.438 1265.51 600.073 1262.86 603.122 1257.56C604.177 1255.68 605.525 1251.67 607.167 1245.55C608.809 1239.42 610.45 1233.06 612.092 1226.46C613.733 1219.87 614.671 1215.98 614.906 1214.8C615.492 1211.62 615.785 1209.32 615.785 1207.91C615.785 1204.61 614.906 1202.26 613.147 1200.84C611.388 1199.43 609.395 1198.72 607.167 1198.72C602.477 1198.72 598.08 1200.61 593.976 1204.38C589.872 1208.15 586.999 1212.98 585.357 1218.87C585.123 1219.93 584.83 1220.52 584.478 1220.63C584.126 1220.75 583.188 1220.87 581.664 1220.99H579.201C578.498 1220.28 578.146 1219.63 578.146 1219.04Z" fill="white"/>
<path d="M690.456 1215.79C690.456 1214.95 690.622 1214 690.954 1212.91C691.285 1211.83 691.783 1211.29 692.446 1211.29C692.529 1211.29 695.513 1211.08 701.399 1210.66C707.285 1210.25 710.311 1210 710.477 1209.92C711.472 1209.92 711.969 1210.25 711.969 1210.91C711.969 1211.5 709.897 1220.2 705.752 1237.02C701.607 1253.51 699.534 1262.05 699.534 1262.63C701.109 1261.8 702.311 1261.01 703.14 1260.26C705.13 1258.76 707.99 1256.14 711.72 1252.39C715.451 1248.64 718.352 1246.1 720.425 1244.77C723.741 1242.52 726.891 1241.4 729.875 1241.4C732.362 1241.4 734.311 1242.19 735.72 1243.77C737.129 1245.35 737.875 1247.6 737.958 1250.52C737.958 1252.6 737.668 1254.35 737.088 1255.76C736.507 1257.18 735.72 1258.22 734.725 1258.89C733.73 1259.55 732.86 1260.01 732.114 1260.26C731.368 1260.51 730.622 1260.64 729.875 1260.64C728.217 1260.64 726.891 1260.18 725.896 1259.26C724.901 1258.34 724.404 1257.14 724.404 1255.64C724.404 1253.56 725.067 1251.85 726.394 1250.52C727.72 1249.18 729.046 1248.31 730.373 1247.89L732.362 1247.52C731.368 1246.52 730.373 1246.02 729.378 1246.02H728.881C726.228 1246.27 723.617 1247.31 721.047 1249.14C718.477 1250.97 715.451 1253.64 711.969 1257.14C708.487 1260.64 705.752 1263.18 703.762 1264.76C703.928 1264.84 704.549 1264.97 705.627 1265.13C706.705 1265.3 707.7 1265.55 708.612 1265.88C709.524 1266.22 710.601 1266.55 711.845 1266.88C713.088 1267.21 714.207 1267.8 715.202 1268.63C716.197 1269.46 717.109 1270.21 717.938 1270.88C718.767 1271.55 719.472 1272.63 720.052 1274.13C720.632 1275.63 720.881 1277 720.798 1278.25C720.798 1279.67 720.591 1281.37 720.176 1283.37C719.762 1285.37 719.513 1287.04 719.43 1288.37C719.43 1291.7 720.549 1293.37 722.788 1293.37C726.767 1293.37 730 1288.41 732.487 1278.5C732.653 1277.83 733.482 1277.5 734.974 1277.5H735.471C736.798 1277.5 737.461 1277.87 737.461 1278.62C737.461 1279.04 737.337 1279.62 737.088 1280.37C733.689 1292.12 728.798 1297.99 722.414 1297.99C718.684 1297.99 715.658 1296.91 713.337 1294.74C711.016 1292.57 709.855 1289.45 709.855 1285.37C709.855 1283.87 709.979 1282.58 710.228 1281.5C710.477 1280.41 710.601 1279.42 710.601 1278.5C710.601 1276.67 710.021 1275.08 708.86 1273.75C707.7 1272.42 706.249 1271.46 704.508 1270.88C702.767 1270.3 701.358 1269.84 700.28 1269.5C699.202 1269.17 698.456 1269.05 698.042 1269.13H697.793C696.798 1272.63 695.928 1276 695.182 1279.25C694.436 1282.5 693.855 1284.91 693.441 1286.49C693.026 1288.08 692.653 1289.62 692.322 1291.12C691.99 1292.62 691.7 1293.62 691.451 1294.12C691.203 1294.61 690.912 1295.16 690.581 1295.74C690.249 1296.32 689.793 1296.7 689.213 1296.86C688.135 1297.61 686.975 1297.99 685.731 1297.99C684.322 1297.99 683.244 1297.57 682.498 1296.74C681.752 1295.91 681.379 1295.2 681.379 1294.61C681.379 1293.78 682.913 1287.12 685.98 1274.63C689.047 1262.13 692.073 1249.85 695.057 1237.77L699.658 1219.66C699.741 1218.58 699.451 1217.91 698.788 1217.66C698.125 1217.41 696.508 1217.2 693.938 1217.04H693.317C692.488 1217.04 691.949 1217.04 691.7 1217.04C691.451 1217.04 691.161 1216.91 690.83 1216.66C690.498 1216.41 690.374 1216.12 690.456 1215.79Z" fill="white"/>
<line x1="68.9461" y1="861.478" x2="1811.95" y2="302.478" stroke="#FCD61A" stroke-width="20"/>
<path d="M1038.69 1240.51C1039.29 1236.91 1041.61 1232.75 1045.64 1228.03C1049.67 1223.31 1054.65 1220.91 1060.57 1220.83C1063.57 1220.83 1066.32 1221.6 1068.8 1223.14C1071.29 1224.69 1073.14 1226.62 1074.34 1228.93C1077.94 1223.53 1082.27 1220.83 1087.33 1220.83C1090.51 1220.83 1093.25 1221.77 1095.57 1223.66C1097.88 1225.54 1099.09 1228.07 1099.17 1231.25C1099.17 1233.73 1098.57 1235.75 1097.37 1237.29C1096.17 1238.84 1095.01 1239.78 1093.9 1240.12C1092.78 1240.47 1091.79 1240.64 1090.94 1240.64C1089.31 1240.64 1087.98 1240.17 1086.95 1239.22C1085.92 1238.28 1085.4 1237.04 1085.4 1235.49C1085.4 1231.55 1087.55 1228.85 1091.84 1227.39C1090.89 1226.27 1089.18 1225.72 1086.69 1225.72C1085.57 1225.72 1084.76 1225.8 1084.24 1225.97C1080.98 1227.34 1078.58 1230.18 1077.04 1234.46C1071.89 1253.42 1069.32 1264.48 1069.32 1267.66C1069.32 1270.06 1070 1271.77 1071.38 1272.8C1072.75 1273.83 1074.25 1274.35 1075.88 1274.35C1079.05 1274.35 1082.19 1272.93 1085.27 1270.1C1088.36 1267.27 1090.46 1263.8 1091.58 1259.68C1091.84 1258.82 1092.09 1258.35 1092.35 1258.26C1092.61 1258.18 1093.3 1258.09 1094.41 1258.01H1094.93C1096.21 1258.01 1096.86 1258.35 1096.86 1259.04C1096.86 1259.12 1096.77 1259.59 1096.6 1260.45C1095.23 1265.34 1092.57 1269.67 1088.62 1273.45C1084.67 1277.22 1080.08 1279.11 1074.85 1279.11C1068.85 1279.11 1064.3 1276.4 1061.21 1271C1057.69 1276.32 1053.66 1278.98 1049.11 1278.98H1048.34C1044.14 1278.98 1041.14 1277.86 1039.33 1275.63C1037.53 1273.4 1036.59 1271.04 1036.5 1268.56C1036.5 1265.81 1037.32 1263.58 1038.95 1261.87C1040.58 1260.15 1042.51 1259.29 1044.74 1259.29C1048.43 1259.29 1050.27 1261.09 1050.27 1264.7C1050.27 1266.41 1049.76 1267.91 1048.73 1269.2C1047.7 1270.49 1046.71 1271.34 1045.77 1271.77C1044.83 1272.2 1044.27 1272.42 1044.1 1272.42L1043.71 1272.55C1043.71 1272.63 1043.97 1272.8 1044.48 1273.06C1045 1273.32 1045.68 1273.62 1046.54 1273.96C1047.4 1274.3 1048.21 1274.43 1048.99 1274.35C1052.07 1274.35 1054.73 1272.42 1056.96 1268.56C1057.74 1267.18 1058.72 1264.27 1059.92 1259.81C1061.12 1255.35 1062.33 1250.72 1063.53 1245.91C1064.73 1241.11 1065.41 1238.28 1065.59 1237.42C1066.01 1235.11 1066.23 1233.43 1066.23 1232.41C1066.23 1230 1065.59 1228.29 1064.3 1227.26C1063.01 1226.23 1061.55 1225.72 1059.92 1225.72C1056.49 1225.72 1053.28 1227.09 1050.27 1229.83C1047.27 1232.58 1045.17 1236.09 1043.97 1240.38C1043.8 1241.15 1043.58 1241.58 1043.32 1241.67C1043.07 1241.75 1042.38 1241.84 1041.27 1241.93H1039.46C1038.95 1241.41 1038.69 1240.94 1038.69 1240.51Z" fill="white"/>
<path d="M1120.86 1238.14C1120.86 1237.53 1120.98 1236.84 1121.22 1236.05C1121.47 1235.26 1121.83 1234.86 1122.32 1234.86C1122.38 1234.86 1124.56 1234.71 1128.87 1234.41C1133.17 1234.11 1135.39 1233.92 1135.51 1233.86C1136.24 1233.86 1136.6 1234.11 1136.6 1234.59C1136.6 1235.02 1135.08 1241.35 1132.05 1253.6C1129.02 1265.61 1127.5 1271.82 1127.5 1272.25C1128.65 1271.64 1129.53 1271.07 1130.14 1270.52C1131.6 1269.43 1133.69 1267.52 1136.42 1264.79C1139.15 1262.06 1141.27 1260.21 1142.79 1259.24C1145.21 1257.6 1147.52 1256.79 1149.7 1256.79C1151.52 1256.79 1152.95 1257.36 1153.98 1258.51C1155.01 1259.67 1155.55 1261.3 1155.61 1263.43C1155.61 1264.94 1155.4 1266.22 1154.98 1267.25C1154.55 1268.28 1153.98 1269.03 1153.25 1269.52C1152.52 1270 1151.88 1270.34 1151.34 1270.52C1150.79 1270.7 1150.25 1270.79 1149.7 1270.79C1148.49 1270.79 1147.52 1270.46 1146.79 1269.79C1146.06 1269.13 1145.7 1268.25 1145.7 1267.15C1145.7 1265.64 1146.18 1264.4 1147.15 1263.43C1148.12 1262.46 1149.09 1261.82 1150.06 1261.52L1151.52 1261.24C1150.79 1260.51 1150.06 1260.15 1149.34 1260.15H1148.97C1147.03 1260.33 1145.12 1261.09 1143.24 1262.43C1141.36 1263.76 1139.15 1265.7 1136.6 1268.25C1134.05 1270.79 1132.05 1272.64 1130.6 1273.79C1130.72 1273.86 1131.17 1273.95 1131.96 1274.07C1132.75 1274.19 1133.48 1274.37 1134.14 1274.61C1134.81 1274.86 1135.6 1275.1 1136.51 1275.34C1137.42 1275.58 1138.24 1276.01 1138.97 1276.61C1139.69 1277.22 1140.36 1277.77 1140.97 1278.25C1141.57 1278.74 1142.09 1279.53 1142.51 1280.62C1142.94 1281.71 1143.12 1282.71 1143.06 1283.62C1143.06 1284.65 1142.91 1285.89 1142.6 1287.35C1142.3 1288.8 1142.12 1290.02 1142.06 1290.99C1142.06 1293.41 1142.88 1294.62 1144.51 1294.62C1147.43 1294.62 1149.79 1291.02 1151.61 1283.8C1151.73 1283.32 1152.34 1283.07 1153.43 1283.07H1153.79C1154.76 1283.07 1155.25 1283.35 1155.25 1283.89C1155.25 1284.19 1155.16 1284.62 1154.98 1285.16C1152.49 1293.71 1148.91 1297.99 1144.24 1297.99C1141.51 1297.99 1139.3 1297.2 1137.6 1295.62C1135.9 1294.05 1135.05 1291.77 1135.05 1288.8C1135.05 1287.71 1135.14 1286.77 1135.33 1285.98C1135.51 1285.19 1135.6 1284.47 1135.6 1283.8C1135.6 1282.47 1135.17 1281.31 1134.33 1280.34C1133.48 1279.37 1132.41 1278.68 1131.14 1278.25C1129.87 1277.83 1128.84 1277.49 1128.05 1277.25C1127.26 1277.01 1126.71 1276.92 1126.41 1276.98H1126.23C1125.5 1279.53 1124.86 1281.98 1124.32 1284.35C1123.77 1286.71 1123.35 1288.47 1123.04 1289.62C1122.74 1290.77 1122.47 1291.9 1122.23 1292.99C1121.98 1294.08 1121.77 1294.81 1121.59 1295.17C1121.41 1295.53 1121.19 1295.93 1120.95 1296.35C1120.71 1296.78 1120.38 1297.05 1119.95 1297.17C1119.16 1297.72 1118.31 1297.99 1117.4 1297.99C1116.37 1297.99 1115.58 1297.69 1115.04 1297.08C1114.49 1296.47 1114.22 1295.96 1114.22 1295.53C1114.22 1294.93 1115.34 1290.08 1117.59 1280.98C1119.83 1271.88 1122.04 1262.94 1124.23 1254.15L1127.59 1240.96C1127.65 1240.17 1127.44 1239.69 1126.96 1239.5C1126.47 1239.32 1125.29 1239.17 1123.41 1239.05H1122.95C1122.35 1239.05 1121.95 1239.05 1121.77 1239.05C1121.59 1239.05 1121.38 1238.96 1121.13 1238.78C1120.89 1238.59 1120.8 1238.38 1120.86 1238.14Z" fill="white"/>
<path d="M1199.49 1247.2C1199.49 1247.2 1199.49 1246.64 1199.49 1245.53C1199.49 1244.41 1200.09 1243.55 1201.29 1242.95H1239.77V1223.66L1239.9 1204.36C1240.76 1203.24 1241.57 1202.69 1242.34 1202.69C1243.46 1202.69 1244.32 1203.33 1244.92 1204.62V1242.95H1283.26C1284.55 1243.64 1285.19 1244.5 1285.19 1245.53C1285.19 1246.56 1284.55 1247.41 1283.26 1248.1H1244.92V1286.44C1244.23 1287.64 1243.46 1288.24 1242.6 1288.24H1242.34H1242.09C1241.06 1288.24 1240.28 1287.64 1239.77 1286.44V1248.1H1201.29C1200.09 1247.5 1199.49 1246.64 1199.49 1245.53V1247.2Z" fill="white"/>
<path d="M1348.4 1203.33L1346.73 1203.97C1345.53 1204.4 1343.81 1204.83 1341.58 1205.26C1339.35 1205.69 1336.86 1205.99 1334.12 1206.16H1331.67V1200.24H1334.12C1338.15 1200.07 1341.88 1199.43 1345.31 1198.31C1348.75 1197.2 1351.15 1196.17 1352.52 1195.22C1353.89 1194.28 1355.09 1193.34 1356.12 1192.39C1356.29 1192.14 1356.81 1192.01 1357.67 1192.01C1358.44 1192.01 1359.17 1192.26 1359.85 1192.78V1231.25L1359.98 1269.84C1360.58 1270.44 1361.1 1270.83 1361.53 1271C1361.96 1271.17 1362.99 1271.34 1364.62 1271.52C1366.25 1271.69 1368.91 1271.77 1372.59 1271.77H1375.94V1277.69H1374.52C1372.72 1277.43 1365.9 1277.3 1354.06 1277.3C1342.4 1277.3 1335.66 1277.43 1333.86 1277.69H1332.32V1271.77H1335.66C1337.55 1271.77 1339.18 1271.77 1340.55 1271.77C1341.92 1271.77 1343 1271.73 1343.77 1271.64C1344.54 1271.56 1345.23 1271.43 1345.83 1271.26C1346.43 1271.09 1346.77 1271 1346.86 1271C1346.94 1271 1347.2 1270.79 1347.63 1270.36C1348.06 1269.93 1348.32 1269.76 1348.4 1269.84V1203.33Z" fill="white"/>
<circle cx="1199" cy="791" r="10" fill="white"/>
<circle cx="1199" cy="277" r="10" fill="white"/>
<path d="M2.55518 252.125C2.55518 250.99 3.16358 249.043 4.38037 246.285C5.59717 243.526 7.54405 240.647 10.221 237.645C12.898 234.644 15.8994 233.184 19.2253 233.265C22.5512 233.265 25.2282 234.198 27.2562 236.063C29.2842 237.929 30.3388 240.525 30.4199 243.851C30.2576 245.392 30.136 246.244 30.0548 246.406C30.0548 246.65 29.4059 248.515 28.108 252.004C26.81 255.492 25.4716 259.426 24.0925 263.806C22.7135 268.187 22.0645 271.675 22.1456 274.271C22.1456 277.759 22.7135 280.193 23.8492 281.572C24.9848 282.951 26.6884 283.681 28.9597 283.762C30.8255 283.762 32.5695 283.316 34.1919 282.423C35.8143 281.531 37.0717 280.598 37.964 279.625C38.8563 278.651 39.9515 277.313 41.2494 275.609C41.2494 275.528 41.4522 274.717 41.8578 273.176C42.2634 271.635 42.8312 269.241 43.5613 265.997C44.2914 262.752 45.062 259.75 45.8732 256.992C48.9558 244.824 50.6593 238.456 50.9838 237.889C52.0383 235.698 53.7824 234.603 56.216 234.603C57.2706 234.603 58.1223 234.887 58.7713 235.455C59.4202 236.023 59.8664 236.51 60.1098 236.915C60.3531 237.321 60.4342 237.686 60.3531 238.01C60.3531 239.065 58.3657 247.582 54.3908 263.563C50.4159 279.544 48.1446 288.305 47.5767 289.846C45.3054 296.579 41.3711 301.933 35.7738 305.908C30.1765 309.883 24.5792 311.911 18.982 311.992C15.3316 311.992 12.1273 311.099 9.36925 309.315C6.61117 307.53 5.23213 304.853 5.23213 301.284C5.23213 299.499 5.51605 297.999 6.08389 296.782C6.65173 295.565 7.42237 294.673 8.39581 294.105C9.36925 293.537 10.1804 293.131 10.8294 292.888C11.4784 292.645 12.1679 292.523 12.898 292.523C16.4672 292.523 18.2519 294.226 18.2519 297.633C18.2519 299.256 17.7652 300.675 16.7917 301.892C15.8183 303.109 14.8854 303.92 13.9931 304.326C13.1008 304.731 12.5735 304.934 12.4112 304.934L12.0462 305.056C12.2084 305.462 12.9791 305.948 14.3581 306.516C15.7372 307.084 17.1162 307.368 18.4952 307.368H19.4687C20.8477 307.368 21.9023 307.287 22.6324 307.125C25.3093 306.394 27.7835 304.853 30.0548 302.501C32.3262 300.148 34.0703 297.633 35.2871 294.957C36.5039 292.28 37.4367 290.008 38.0857 288.142C38.7347 286.277 39.0591 285.06 39.0591 284.492L38.3291 284.979C37.8423 285.303 37.0717 285.749 36.0171 286.317C34.9626 286.885 33.908 287.372 32.8535 287.777C31.2311 288.183 29.6492 288.386 28.108 288.386C24.3764 288.386 21.0911 287.493 18.2519 285.709C15.4127 283.924 13.5469 281.044 12.6546 277.07C12.5735 276.502 12.5329 275.244 12.5329 273.297C12.5329 268.674 13.9525 262.63 16.7917 255.167C19.6309 247.704 21.0505 242.959 21.0505 240.931C21.0505 240.85 21.0505 240.768 21.0505 240.687C21.0505 239.957 21.0505 239.47 21.0505 239.227C21.0505 238.984 20.8883 238.7 20.5638 238.375C20.2393 238.051 19.7932 237.889 19.2253 237.889H18.7386C16.8728 237.889 15.1693 238.659 13.628 240.201C12.0868 241.742 10.87 243.405 9.97765 245.189C9.08533 246.974 8.39581 248.678 7.90909 250.3C7.42237 251.922 7.09789 252.815 6.93565 252.977C6.77341 253.139 6.12445 253.22 4.98877 253.22H3.28526C2.79854 252.734 2.55518 252.369 2.55518 252.125Z" fill="white"/>
<path d="M74.0478 249.639C74.0478 249.066 74.1625 248.406 74.392 247.661C74.6214 246.915 74.9655 246.542 75.4243 246.542C75.4816 246.542 77.5463 246.399 81.6183 246.112C85.6903 245.825 87.7836 245.653 87.8983 245.596C88.5865 245.596 88.9306 245.825 88.9306 246.284C88.9306 246.686 87.4968 252.679 84.6292 264.264C81.7617 275.62 80.3279 281.498 80.3279 281.9C81.4175 281.326 82.2492 280.781 82.8227 280.265C84.1991 279.233 86.1777 277.426 88.7586 274.846C91.3394 272.265 93.3467 270.515 94.7805 269.598C97.0746 268.049 99.254 267.275 101.319 267.275C103.039 267.275 104.387 267.82 105.362 268.91C106.337 269.999 106.853 271.548 106.91 273.555C106.91 274.989 106.71 276.193 106.308 277.168C105.907 278.143 105.362 278.86 104.674 279.319C103.985 279.778 103.383 280.093 102.867 280.265C102.351 280.437 101.835 280.523 101.319 280.523C100.172 280.523 99.254 280.208 98.5657 279.577C97.8775 278.946 97.5334 278.115 97.5334 277.082C97.5334 275.648 97.9922 274.473 98.9098 273.555C99.8275 272.637 100.745 272.035 101.663 271.749L103.039 271.49C102.351 270.802 101.663 270.458 100.975 270.458H100.63C98.7951 270.63 96.9886 271.347 95.2107 272.609C93.4327 273.871 91.3394 275.706 88.9306 278.115C86.5219 280.523 84.6292 282.273 83.2528 283.362C83.3675 283.42 83.7976 283.506 84.5432 283.62C85.2888 283.735 85.977 283.907 86.6079 284.136C87.2388 284.366 87.9843 284.595 88.8446 284.825C89.7049 285.054 90.4791 285.456 91.1674 286.029C91.8556 286.603 92.4864 287.119 93.06 287.578C93.6335 288.036 94.121 288.782 94.5224 289.814C94.9239 290.847 95.096 291.793 95.0386 292.653C95.0386 293.628 94.8952 294.804 94.6085 296.18C94.3217 297.557 94.1496 298.704 94.0923 299.621C94.0923 301.916 94.8665 303.063 96.415 303.063C99.1679 303.063 101.405 299.65 103.125 292.825C103.24 292.366 103.813 292.137 104.846 292.137H105.19C106.107 292.137 106.566 292.395 106.566 292.911C106.566 293.198 106.48 293.6 106.308 294.116C103.957 302.202 100.573 306.246 96.157 306.246C93.5761 306.246 91.4828 305.5 89.8769 304.009C88.2711 302.518 87.4682 300.367 87.4682 297.557C87.4682 296.524 87.5542 295.636 87.7262 294.89C87.8983 294.144 87.9843 293.456 87.9843 292.825C87.9843 291.564 87.5829 290.474 86.7799 289.556C85.977 288.639 84.9734 287.979 83.769 287.578C82.5646 287.176 81.5896 286.861 80.844 286.631C80.0985 286.402 79.5823 286.316 79.2955 286.373H79.1235C78.4353 288.782 77.8331 291.105 77.3169 293.341C76.8007 295.578 76.3993 297.241 76.1125 298.331C75.8257 299.421 75.5677 300.482 75.3383 301.514C75.1089 302.546 74.9081 303.235 74.7361 303.579C74.564 303.923 74.3633 304.296 74.1339 304.697C73.9045 305.099 73.589 305.357 73.1876 305.471C72.442 305.988 71.6391 306.246 70.7788 306.246C69.8038 306.246 69.0582 305.959 68.5421 305.385C68.0259 304.812 67.7678 304.324 67.7678 303.923C67.7678 303.349 68.8288 298.761 70.9508 290.158C73.0729 281.556 75.1662 273.096 77.2309 264.78L80.4139 252.306C80.4712 251.561 80.2705 251.102 79.8117 250.93C79.3529 250.758 78.2345 250.614 76.4566 250.5H76.0265C75.453 250.5 75.0802 250.5 74.9081 250.5C74.7361 250.5 74.5353 250.414 74.3059 250.242C74.0765 250.07 73.9905 249.869 74.0478 249.639Z" fill="white"/>
<path d="M148.401 258.209C148.401 258.209 148.401 257.682 148.401 256.627C148.401 255.573 148.968 254.761 150.104 254.194H186.486V235.942L186.608 217.69C187.419 216.635 188.19 216.108 188.92 216.108C189.975 216.108 190.786 216.716 191.354 217.933V254.194H227.614C228.831 254.843 229.439 255.654 229.439 256.627C229.439 257.601 228.831 258.412 227.614 259.061H191.354V295.321C190.705 296.457 189.975 297.025 189.163 297.025H188.92H188.677C187.703 297.025 186.973 296.457 186.486 295.321V259.061H150.104C148.968 258.493 148.401 257.682 148.401 256.627V258.209Z" fill="white"/>
<path d="M289.209 216.716L287.627 217.325C286.491 217.73 284.869 218.136 282.76 218.542C280.651 218.947 278.298 219.231 275.702 219.393H273.39V213.796H275.702C279.515 213.634 283.044 213.025 286.288 211.971C289.533 210.916 291.805 209.943 293.103 209.051C294.4 208.158 295.536 207.266 296.51 206.374C296.672 206.13 297.159 206.009 297.97 206.009C298.7 206.009 299.389 206.252 300.038 206.739V243.121L300.16 279.625C300.728 280.193 301.215 280.558 301.62 280.72C302.026 280.882 302.999 281.044 304.54 281.207C306.082 281.369 308.596 281.45 312.085 281.45H315.248V287.047H313.91C312.206 286.804 305.757 286.682 294.563 286.682C283.53 286.682 277.162 286.804 275.459 287.047H273.999V281.45H277.162C278.947 281.45 280.488 281.45 281.786 281.45C283.084 281.45 284.098 281.41 284.828 281.328C285.558 281.247 286.207 281.126 286.775 280.963C287.343 280.801 287.667 280.72 287.749 280.72C287.83 280.72 288.073 280.517 288.479 280.112C288.884 279.706 289.128 279.544 289.209 279.625V216.716Z" fill="white"/>
<g clip-path="url(#clip0_74_120)">
<path d="M75.4402 684.396C75.4402 682.867 76.2593 680.246 77.8975 676.533C79.5357 672.819 82.1569 668.942 85.7609 664.901C89.365 660.86 93.4059 658.895 97.8837 659.004C102.361 659.004 105.966 660.26 108.696 662.772C111.426 665.284 112.846 668.778 112.955 673.256C112.737 675.331 112.573 676.478 112.464 676.696C112.464 677.024 111.59 679.536 109.843 684.232C108.095 688.928 106.293 694.225 104.437 700.123C102.58 706.02 101.706 710.717 101.815 714.212C101.815 718.908 102.58 722.184 104.109 724.041C105.638 725.897 107.931 726.88 110.989 726.99C113.501 726.99 115.849 726.389 118.034 725.188C120.218 723.986 121.911 722.73 123.112 721.42C124.314 720.109 125.788 718.307 127.535 716.014C127.535 715.904 127.808 714.812 128.354 712.737C128.901 710.662 129.665 707.44 130.648 703.072C131.631 698.703 132.668 694.662 133.761 690.949C137.911 674.567 140.204 665.993 140.641 665.229C142.061 662.28 144.409 660.806 147.685 660.806C149.105 660.806 150.252 661.188 151.126 661.953C151.999 662.717 152.6 663.372 152.928 663.918C153.255 664.464 153.364 664.956 153.255 665.393C153.255 666.813 150.58 678.28 145.228 699.795C139.877 721.31 136.819 733.106 136.054 735.181C132.996 744.245 127.699 751.454 120.163 756.805C112.628 762.157 105.092 764.887 97.5561 764.996C92.6414 764.996 88.3275 763.795 84.6142 761.392C80.9009 758.989 79.0443 755.385 79.0443 750.58C79.0443 748.177 79.4265 746.157 80.191 744.518C80.9555 742.88 81.993 741.679 83.3036 740.914C84.6142 740.15 85.7063 739.604 86.58 739.276C87.4537 738.949 88.3821 738.785 89.365 738.785C94.1704 738.785 96.5731 741.078 96.5731 745.665C96.5731 747.849 95.9178 749.761 94.6073 751.399C93.2967 753.037 92.0407 754.129 90.8394 754.675C89.638 755.221 88.9281 755.494 88.7097 755.494L88.2182 755.658C88.4367 756.204 89.4742 756.86 91.3308 757.624C93.1875 758.389 95.0441 758.771 96.9008 758.771H98.2113C100.068 758.771 101.488 758.662 102.471 758.443C106.075 757.46 109.406 755.385 112.464 752.218C115.522 749.051 117.87 745.665 119.508 742.061C121.146 738.457 122.402 735.399 123.276 732.887C124.15 730.375 124.587 728.737 124.587 727.972L123.604 728.628C122.948 729.065 121.911 729.665 120.491 730.43C119.071 731.194 117.651 731.85 116.232 732.396C114.047 732.942 111.918 733.215 109.843 733.215C104.819 733.215 100.396 732.013 96.5731 729.611C92.7506 727.208 90.2387 723.331 89.0373 717.979C88.9281 717.215 88.8735 715.522 88.8735 712.901C88.8735 706.676 90.7848 698.539 94.6073 688.492C98.4298 678.444 100.341 672.055 100.341 669.324C100.341 669.215 100.341 669.106 100.341 668.997C100.341 668.014 100.341 667.359 100.341 667.031C100.341 666.703 100.123 666.321 99.6857 665.884C99.2489 665.447 98.6482 665.229 97.8837 665.229H97.2284C94.7165 665.229 92.423 666.266 90.3479 668.342C88.2728 670.417 86.6346 672.656 85.4333 675.058C84.2319 677.461 83.3036 679.754 82.6483 681.939C81.993 684.123 81.5562 685.324 81.3377 685.543C81.1193 685.761 80.2456 685.87 78.7166 685.87H76.4231C75.7678 685.215 75.4402 684.724 75.4402 684.396Z" fill="white"/>
<path d="M171.693 681.049C171.693 680.277 171.847 679.389 172.156 678.385C172.465 677.381 172.928 676.88 173.546 676.88C173.623 676.88 176.403 676.687 181.885 676.3C187.367 675.914 190.186 675.683 190.34 675.606C191.267 675.606 191.73 675.914 191.73 676.532C191.73 677.073 189.8 685.142 185.939 700.739C182.078 716.027 180.148 723.942 180.148 724.482C181.615 723.71 182.734 722.977 183.507 722.282C185.36 720.892 188.024 718.46 191.498 714.985C194.973 711.51 197.675 709.155 199.606 707.92C202.694 705.835 205.628 704.793 208.408 704.793C210.725 704.793 212.539 705.526 213.852 706.993C215.164 708.46 215.859 710.545 215.937 713.248C215.937 715.178 215.666 716.799 215.126 718.112C214.585 719.425 213.852 720.39 212.925 721.008C211.999 721.625 211.188 722.05 210.493 722.282C209.798 722.513 209.103 722.629 208.408 722.629C206.864 722.629 205.628 722.204 204.702 721.355C203.775 720.506 203.312 719.386 203.312 717.996C203.312 716.066 203.93 714.483 205.165 713.248C206.401 712.012 207.636 711.201 208.872 710.815L210.725 710.468C209.798 709.541 208.872 709.078 207.945 709.078H207.482C205.011 709.31 202.579 710.275 200.185 711.974C197.791 713.672 194.973 716.143 191.73 719.386C188.487 722.629 185.939 724.984 184.086 726.451C184.24 726.528 184.819 726.644 185.823 726.799C186.827 726.953 187.753 727.185 188.603 727.494C189.452 727.802 190.456 728.111 191.614 728.42C192.772 728.729 193.815 729.27 194.741 730.042C195.668 730.814 196.517 731.509 197.289 732.126C198.061 732.744 198.718 733.748 199.258 735.138C199.799 736.528 200.03 737.802 199.953 738.96C199.953 740.273 199.76 741.855 199.374 743.709C198.988 745.562 198.756 747.106 198.679 748.342C198.679 751.43 199.722 752.974 201.806 752.974C205.513 752.974 208.524 748.38 210.84 739.192C210.995 738.574 211.767 738.265 213.157 738.265H213.62C214.856 738.265 215.473 738.612 215.473 739.307C215.473 739.693 215.358 740.234 215.126 740.929C211.96 751.816 207.404 757.26 201.459 757.26C197.984 757.26 195.166 756.256 193.004 754.248C190.842 752.241 189.761 749.345 189.761 745.562C189.761 744.172 189.877 742.975 190.108 741.971C190.34 740.968 190.456 740.041 190.456 739.192C190.456 737.493 189.915 736.026 188.834 734.79C187.753 733.555 186.402 732.667 184.781 732.126C183.159 731.586 181.846 731.161 180.843 730.852C179.839 730.544 179.144 730.428 178.758 730.505H178.526C177.6 733.748 176.789 736.875 176.094 739.887C175.399 742.898 174.859 745.137 174.472 746.604C174.086 748.071 173.739 749.5 173.43 750.89C173.121 752.279 172.851 753.206 172.619 753.669C172.388 754.133 172.117 754.634 171.809 755.175C171.5 755.715 171.075 756.063 170.535 756.217C169.531 756.912 168.45 757.26 167.292 757.26C165.979 757.26 164.975 756.874 164.28 756.102C163.585 755.329 163.238 754.673 163.238 754.133C163.238 753.36 164.666 747.183 167.523 735.601C170.38 724.019 173.198 712.63 175.978 701.434L180.264 684.64C180.341 683.636 180.071 683.018 179.453 682.786C178.835 682.555 177.329 682.362 174.936 682.207H174.357C173.585 682.207 173.083 682.207 172.851 682.207C172.619 682.207 172.349 682.092 172.04 681.86C171.731 681.628 171.616 681.358 171.693 681.049Z" fill="white"/>
</g>
<g clip-path="url(#clip1_74_120)">
<path d="M1504.28 494.928C1504.28 492.016 1504.59 490.352 1505.22 489.936C1505.84 489.52 1507.92 489.208 1511.46 489C1528.72 489 1542.03 491.6 1551.39 496.8C1560.75 502 1567.3 507.72 1571.05 513.96C1572.92 518.328 1573.96 521.968 1574.17 524.88C1574.38 527.792 1574.58 541.728 1574.79 566.688C1575 595.6 1575.21 610.576 1575.42 611.616C1578.12 620.976 1583.53 627.84 1591.64 632.208C1599.75 636.576 1607.24 638.864 1614.1 639.072C1616.39 639.072 1617.85 639.384 1618.47 640.008C1619.1 640.632 1619.41 642.296 1619.41 645C1619.41 647.704 1619.1 649.368 1618.47 649.992C1617.85 650.616 1616.39 650.928 1614.1 650.928C1606.41 650.928 1598.92 653.112 1591.64 657.48C1584.36 661.848 1579.47 667.36 1576.98 674.016C1575.94 676.928 1575.31 680.672 1575.1 685.248C1574.9 689.824 1574.79 705.32 1574.79 731.736V747.648C1574.79 759.088 1574.17 767.096 1572.92 771.672C1571.67 776.248 1568.66 780.616 1563.87 784.776C1552.64 795.592 1535.27 801 1511.77 801C1508.02 801 1505.84 800.688 1505.22 800.064C1504.59 799.44 1504.28 797.672 1504.28 794.76C1504.28 793.512 1504.28 792.784 1504.28 792.576C1504.28 792.368 1504.38 791.848 1504.59 791.016C1504.8 790.184 1505.11 789.768 1505.53 789.768C1505.94 789.768 1506.78 789.664 1508.02 789.456C1510.94 789.456 1514.16 789.144 1517.7 788.52C1521.23 787.896 1525.18 786.856 1529.55 785.4C1533.92 783.944 1537.77 781.552 1541.1 778.224C1544.42 774.896 1546.92 770.944 1548.58 766.368C1548.79 765.328 1549 750.56 1549.21 722.064L1549.52 679.632C1552.22 667.776 1559.5 658.312 1571.36 651.24C1578.64 647.704 1583.84 645.624 1586.96 645C1581.76 643.544 1576.56 641.464 1571.36 638.76C1559.92 631.688 1552.85 623.16 1550.14 613.176L1549.52 610.056L1549.21 567.624C1549 539.128 1548.79 524.36 1548.58 523.32C1546.09 515 1540.58 509.176 1532.05 505.848C1523.52 502.52 1515.51 500.752 1508.02 500.544C1506.15 500.544 1505.11 500.232 1504.9 499.608C1504.7 498.984 1504.49 497.424 1504.28 494.928Z" fill="white"/>
</g>
<g clip-path="url(#clip2_74_120)">
<path d="M1519.08 271.408C1519.08 269.243 1519.31 268.005 1519.78 267.696C1520.24 267.387 1521.79 267.155 1524.42 267C1537.25 267 1547.15 268.933 1554.11 272.8C1561.07 276.667 1565.94 280.92 1568.73 285.56C1570.12 288.808 1570.89 291.515 1571.05 293.68C1571.2 295.845 1571.36 306.208 1571.51 324.768C1571.67 346.267 1571.82 357.403 1571.98 358.176C1573.99 365.136 1578.01 370.24 1584.04 373.488C1590.07 376.736 1595.64 378.437 1600.74 378.592C1602.45 378.592 1603.53 378.824 1603.99 379.288C1604.46 379.752 1604.69 380.989 1604.69 383C1604.69 385.011 1604.46 386.248 1603.99 386.712C1603.53 387.176 1602.45 387.408 1600.74 387.408C1595.02 387.408 1589.45 389.032 1584.04 392.28C1578.63 395.528 1574.99 399.627 1573.14 404.576C1572.36 406.741 1571.9 409.525 1571.74 412.928C1571.59 416.331 1571.51 427.853 1571.51 447.496V459.328C1571.51 467.835 1571.05 473.789 1570.12 477.192C1569.19 480.595 1566.95 483.843 1563.39 486.936C1555.04 494.979 1542.13 499 1524.65 499C1521.86 499 1520.24 498.768 1519.78 498.304C1519.31 497.84 1519.08 496.525 1519.08 494.36C1519.08 493.432 1519.08 492.891 1519.08 492.736C1519.08 492.581 1519.16 492.195 1519.31 491.576C1519.47 490.957 1519.7 490.648 1520.01 490.648C1520.32 490.648 1520.94 490.571 1521.86 490.416C1524.03 490.416 1526.43 490.184 1529.06 489.72C1531.69 489.256 1534.62 488.483 1537.87 487.4C1541.12 486.317 1543.98 484.539 1546.46 482.064C1548.93 479.589 1550.79 476.651 1552.02 473.248C1552.18 472.475 1552.33 461.493 1552.49 440.304L1552.72 408.752C1554.73 399.936 1560.14 392.899 1568.96 387.64C1574.37 385.011 1578.24 383.464 1580.56 383C1576.69 381.917 1572.83 380.371 1568.96 378.36C1560.45 373.101 1555.19 366.76 1553.18 359.336L1552.72 357.016L1552.49 325.464C1552.33 304.275 1552.18 293.293 1552.02 292.52C1550.17 286.333 1546.07 282.003 1539.73 279.528C1533.39 277.053 1527.43 275.739 1521.86 275.584C1520.47 275.584 1519.7 275.352 1519.54 274.888C1519.39 274.424 1519.23 273.264 1519.08 271.408Z" fill="white"/>
</g>
<path d="M1758.68 606.057C1758.74 606.057 1761.02 605.899 1765.5 605.584C1769.99 605.268 1772.29 605.078 1772.42 605.015C1773.18 605.015 1773.55 605.268 1773.55 605.773C1773.55 606.215 1771.25 615.754 1766.64 634.388C1762.03 653.022 1759.66 662.529 1759.53 662.908C1759.41 663.287 1759.37 663.761 1759.44 664.329C1759.44 666.982 1760.32 668.309 1762.09 668.309C1762.66 668.246 1763.29 667.961 1763.98 667.456C1765.31 666.193 1766.61 663.161 1767.87 658.36C1768.25 657.096 1768.56 656.433 1768.82 656.37C1768.94 656.307 1769.26 656.275 1769.76 656.275H1770.14H1770.52C1771.47 656.275 1771.94 656.528 1771.94 657.033C1771.94 657.349 1771.85 657.855 1771.66 658.549C1770.84 661.708 1769.89 664.266 1768.82 666.224C1767.74 668.182 1766.86 669.446 1766.16 670.014C1765.47 670.583 1764.58 671.088 1763.51 671.53C1763.01 671.657 1762.25 671.72 1761.24 671.72C1759.09 671.72 1757.29 671.246 1755.84 670.298C1754.38 669.351 1753.44 668.372 1752.99 667.361L1752.43 665.94C1752.36 665.877 1752.24 665.908 1752.05 666.035C1751.92 666.161 1751.79 666.287 1751.67 666.414C1747.94 669.951 1744.15 671.72 1740.3 671.72C1736.82 671.72 1733.76 670.456 1731.11 667.93C1728.45 665.403 1727.13 661.392 1727.13 655.896C1727.13 652.864 1727.76 649.769 1729.02 646.611C1730.29 643.452 1731.8 640.736 1733.57 638.462C1736.54 634.862 1739.51 632.367 1742.48 630.977C1745.45 629.587 1748.13 628.892 1750.53 628.892C1754.07 628.892 1756.72 630.219 1758.49 632.872C1758.81 633.251 1758.96 633.377 1758.96 633.251C1759.03 632.998 1759.88 629.556 1761.52 622.923C1763.16 616.29 1764.05 612.785 1764.17 612.406C1764.17 611.584 1763.95 611.079 1763.51 610.89C1763.07 610.7 1761.84 610.542 1759.82 610.416H1757.83C1757.45 610.037 1757.26 609.784 1757.26 609.658C1757.26 609.532 1757.32 608.931 1757.45 607.858C1757.76 606.657 1758.17 606.057 1758.68 606.057ZM1757.35 639.883C1755.9 634.893 1753.53 632.398 1750.25 632.398C1748.04 632.398 1745.92 633.377 1743.9 635.335C1741.88 637.294 1740.3 639.852 1739.16 643.01C1737.33 648 1736.03 653.18 1735.28 658.549C1735.28 658.739 1735.28 659.086 1735.28 659.592C1735.28 660.097 1735.24 660.476 1735.18 660.729C1735.18 663.571 1735.75 665.529 1736.89 666.603C1738.02 667.677 1739.38 668.246 1740.96 668.309C1744.37 668.309 1747.88 666.035 1751.48 661.487L1752.24 660.444L1757.35 639.883Z" fill="white"/>
<path d="M1790.67 646.265L1789.8 646.6C1789.17 646.824 1788.28 647.047 1787.12 647.27C1785.95 647.493 1784.66 647.65 1783.23 647.739H1781.96V644.658H1783.23C1785.33 644.568 1787.27 644.233 1789.06 643.653C1790.84 643.072 1792.09 642.536 1792.81 642.045C1793.52 641.554 1794.15 641.062 1794.69 640.571C1794.77 640.437 1795.04 640.37 1795.49 640.37C1795.89 640.37 1796.27 640.504 1796.63 640.772V660.802L1796.69 680.899C1797.01 681.211 1797.28 681.412 1797.5 681.501C1797.72 681.591 1798.26 681.68 1799.11 681.769C1799.96 681.859 1801.34 681.903 1803.26 681.903H1805V684.985H1804.26C1803.33 684.851 1799.78 684.784 1793.61 684.784C1787.54 684.784 1784.03 684.851 1783.1 684.985H1782.29V681.903H1784.03C1785.02 681.903 1785.87 681.903 1786.58 681.903C1787.29 681.903 1787.85 681.881 1788.25 681.836C1788.66 681.792 1789.01 681.725 1789.33 681.635C1789.64 681.546 1789.82 681.501 1789.86 681.501C1789.91 681.501 1790.04 681.39 1790.26 681.166C1790.49 680.943 1790.62 680.854 1790.67 680.899V646.265Z" fill="white"/>
<path d="M1758.68 361.057C1758.74 361.057 1761.02 360.899 1765.5 360.584C1769.99 360.268 1772.29 360.078 1772.42 360.015C1773.18 360.015 1773.55 360.268 1773.55 360.773C1773.55 361.215 1771.25 370.754 1766.64 389.388C1762.03 408.022 1759.66 417.529 1759.53 417.908C1759.41 418.287 1759.37 418.761 1759.44 419.329C1759.44 421.982 1760.32 423.309 1762.09 423.309C1762.66 423.246 1763.29 422.961 1763.98 422.456C1765.31 421.193 1766.61 418.161 1767.87 413.36C1768.25 412.096 1768.56 411.433 1768.82 411.37C1768.94 411.307 1769.26 411.275 1769.76 411.275H1770.14H1770.52C1771.47 411.275 1771.94 411.528 1771.94 412.033C1771.94 412.349 1771.85 412.855 1771.66 413.549C1770.84 416.708 1769.89 419.266 1768.82 421.224C1767.74 423.182 1766.86 424.446 1766.16 425.014C1765.47 425.583 1764.58 426.088 1763.51 426.53C1763.01 426.657 1762.25 426.72 1761.24 426.72C1759.09 426.72 1757.29 426.246 1755.84 425.298C1754.38 424.351 1753.44 423.372 1752.99 422.361L1752.43 420.94C1752.36 420.877 1752.24 420.908 1752.05 421.035C1751.92 421.161 1751.79 421.287 1751.67 421.414C1747.94 424.951 1744.15 426.72 1740.3 426.72C1736.82 426.72 1733.76 425.456 1731.11 422.93C1728.45 420.403 1727.13 416.392 1727.13 410.896C1727.13 407.864 1727.76 404.769 1729.02 401.611C1730.29 398.452 1731.8 395.736 1733.57 393.462C1736.54 389.862 1739.51 387.367 1742.48 385.977C1745.45 384.587 1748.13 383.892 1750.53 383.892C1754.07 383.892 1756.72 385.219 1758.49 387.872C1758.81 388.251 1758.96 388.377 1758.96 388.251C1759.03 387.998 1759.88 384.556 1761.52 377.923C1763.16 371.29 1764.05 367.785 1764.17 367.406C1764.17 366.584 1763.95 366.079 1763.51 365.89C1763.07 365.7 1761.84 365.542 1759.82 365.416H1757.83C1757.45 365.037 1757.26 364.784 1757.26 364.658C1757.26 364.532 1757.32 363.931 1757.45 362.858C1757.76 361.657 1758.17 361.057 1758.68 361.057ZM1757.35 394.883C1755.9 389.893 1753.53 387.398 1750.25 387.398C1748.04 387.398 1745.92 388.377 1743.9 390.335C1741.88 392.294 1740.3 394.852 1739.16 398.01C1737.33 403 1736.03 408.18 1735.28 413.549C1735.28 413.739 1735.28 414.086 1735.28 414.592C1735.28 415.097 1735.24 415.476 1735.18 415.729C1735.18 418.571 1735.75 420.529 1736.89 421.603C1738.02 422.677 1739.38 423.246 1740.96 423.309C1744.37 423.309 1747.88 421.035 1751.48 416.487L1752.24 415.444L1757.35 394.883Z" fill="white"/>
<path d="M1783.7 411.247C1782.49 411.247 1781.53 410.845 1780.82 410.041C1780.1 409.237 1779.75 408.254 1779.75 407.093C1779.75 403.923 1780.93 401.176 1783.3 398.854C1785.66 396.531 1788.61 395.37 1792.14 395.37C1796.2 395.37 1799.6 396.621 1802.32 399.122C1805.05 401.623 1806.43 404.86 1806.48 408.835C1806.48 410.755 1806.03 412.586 1805.14 414.328C1804.24 416.07 1803.17 417.588 1801.92 418.883C1800.67 420.178 1798.88 421.831 1796.56 423.841C1794.95 425.225 1792.72 427.279 1789.86 430.004L1785.91 433.755L1791 433.822C1798.01 433.822 1801.74 433.71 1802.19 433.487C1802.5 433.398 1803.04 431.41 1803.8 427.525V427.324H1806.48V427.525C1806.43 427.659 1806.14 429.691 1805.6 433.621C1805.07 437.551 1804.73 439.605 1804.6 439.784V439.985H1779.75V438.712V437.908C1779.75 437.596 1779.88 437.261 1780.15 436.903C1780.42 436.546 1781.09 435.765 1782.16 434.559C1783.45 433.13 1784.57 431.879 1785.51 430.807C1785.91 430.361 1786.67 429.535 1787.79 428.329C1788.9 427.123 1789.66 426.297 1790.06 425.85C1790.46 425.404 1791.11 424.667 1792.01 423.64C1792.9 422.612 1793.52 421.853 1793.88 421.362C1794.24 420.871 1794.75 420.201 1795.42 419.352C1796.09 418.504 1796.56 417.789 1796.83 417.209C1797.1 416.628 1797.43 415.981 1797.83 415.266C1798.24 414.551 1798.53 413.837 1798.7 413.122C1798.88 412.408 1799.04 411.738 1799.17 411.113C1799.31 410.487 1799.37 409.751 1799.37 408.902C1799.37 406.088 1798.62 403.655 1797.1 401.6C1795.58 399.546 1793.41 398.519 1790.6 398.519C1789.13 398.519 1787.83 398.898 1786.71 399.658C1785.6 400.417 1784.82 401.154 1784.37 401.868C1783.92 402.583 1783.7 403.007 1783.7 403.141C1783.7 403.186 1783.81 403.208 1784.03 403.208C1784.84 403.208 1785.66 403.521 1786.51 404.146C1787.36 404.771 1787.79 405.798 1787.79 407.227C1787.79 408.344 1787.43 409.282 1786.71 410.041C1786 410.8 1784.99 411.202 1783.7 411.247Z" fill="white"/>
<path d="M1199.5 277C1199.5 477.729 1199.5 590.271 1199.5 791" stroke="white" stroke-width="3"/>
<circle cx="1199" cy="499" r="10" fill="#001AFF"/>
<defs>
<clipPath id="clip0_74_120">
<rect width="154.221" height="106" fill="white" transform="translate(72 659)"/>
</clipPath>
<clipPath id="clip1_74_120">
<rect width="156" height="312" fill="white" transform="translate(1484 489)"/>
</clipPath>
<clipPath id="clip2_74_120">
<rect width="116" height="232" fill="white" transform="translate(1504 267)"/>
</clipPath>
</defs>
</svg>
